<svg xmlns:dc="http://purl.org/dc/elements/1.1/" xmlns:cc="http://creativecommons.org/ns#" xmlns:rdf="http://www.w3.org/1999/02/22-rdf-syntax-ns#" xmlns:svg="http://www.w3.org/2000/svg" xmlns="http://www.w3.org/2000/svg" xmlns:sodipodi="http://sodipodi.sourceforge.net/DTD/sodipodi-0.dtd" xmlns:inkscape="http://www.inkscape.org/namespaces/inkscape" viewBox="0 0 100 125" version="1.1" x="0px" y="0px"><g transform="translate(0,-952.36216)"><path style="color:#000000;font-style:normal;font-variant:normal;font-weight:normal;font-stretch:normal;font-size:medium;line-height:normal;font-family:sans-serif;text-indent:0;text-align:start;text-decoration:none;text-decoration-line:none;text-decoration-style:solid;text-decoration-color:#000000;letter-spacing:normal;word-spacing:normal;text-transform:none;direction:ltr;block-progression:tb;writing-mode:lr-tb;baseline-shift:baseline;text-anchor:start;white-space:normal;clip-rule:nonzero;display:inline;overflow:visible;visibility:visible;opacity:1;isolation:auto;mix-blend-mode:normal;color-interpolation:sRGB;color-interpolation-filters:linearRGB;solid-color:#000000;solid-opacity:1;fill:#000000;fill-opacity:1;fill-rule:nonzero;stroke:none;stroke-width:1.5;stroke-linecap:round;stroke-linejoin:round;stroke-miterlimit:4;stroke-dasharray:none;stroke-dashoffset:0;stroke-opacity:1;color-rendering:auto;image-rendering:auto;shape-rendering:auto;text-rendering:auto;enable-background:accumulate" d="m 63.644531,993.65234 c -12.33759,0 -22.355469,10.01786 -22.355469,22.35546 0,12.3376 10.017879,22.3555 22.355469,22.3555 C 75.982121,1038.3633 86,1028.3454 86,1016.0078 86,1003.6702 75.982121,993.65234 63.644531,993.65234 Z m 0,1.5 c 11.526929,0 20.855469,9.32856 20.855469,20.85546 0,11.527 -9.32854,20.8555 -20.855469,20.8555 -11.526928,0 -20.855468,-9.3285 -20.855469,-20.8555 0,-11.5269 9.328541,-20.85546 20.855469,-20.85546 z"/><path style="color:#000000;font-style:normal;font-variant:normal;font-weight:normal;font-stretch:normal;font-size:medium;line-height:normal;font-family:sans-serif;text-indent:0;text-align:start;text-decoration:none;text-decoration-line:none;text-decoration-style:solid;text-decoration-color:#000000;letter-spacing:normal;word-spacing:normal;text-transform:none;direction:ltr;block-progression:tb;writing-mode:lr-tb;baseline-shift:baseline;text-anchor:start;white-space:normal;clip-rule:nonzero;display:inline;overflow:visible;visibility:visible;opacity:1;isolation:auto;mix-blend-mode:normal;color-interpolation:sRGB;color-interpolation-filters:linearRGB;solid-color:#000000;solid-opacity:1;fill:#000000;fill-opacity:1;fill-rule:nonzero;stroke:none;stroke-width:1.5;stroke-linecap:round;stroke-linejoin:round;stroke-miterlimit:4;stroke-dasharray:none;stroke-dashoffset:0;stroke-opacity:1;color-rendering:auto;image-rendering:auto;shape-rendering:auto;text-rendering:auto;enable-background:accumulate" d="m 37.400391,966.38672 c -6.128879,-0.28381 -12.288832,1.95452 -16.857422,6.52539 -7.309745,7.31339 -8.649608,18.6979 -3.236328,27.50779 5.413279,8.8099 16.174822,12.7594 26.001953,9.543 a 0.75013417,0.75013417 0 1 0 -0.466797,-1.4258 c -9.175112,3.003 -19.203697,-0.6769 -24.257813,-8.90233 -5.054115,-8.22539 -3.805221,-18.83396 3.019532,-25.66211 6.824753,-6.82816 17.432266,-8.08128 25.660156,-3.03125 8.22789,5.05002 11.912528,15.07533 8.914062,24.25195 a 0.75012608,0.75012608 0 1 0 1.425782,0.4668 c 3.211547,-9.82874 -0.742093,-20.5872 -9.554688,-25.9961 -3.304723,-2.02834 -6.97111,-3.10706 -10.648437,-3.27734 z"/><path style="color:#000000;font-style:normal;font-variant:normal;font-weight:normal;font-stretch:normal;font-size:medium;line-height:normal;font-family:sans-serif;text-indent:0;text-align:start;text-decoration:none;text-decoration-line:none;text-decoration-style:solid;text-decoration-color:#000000;letter-spacing:normal;word-spacing:normal;text-transform:none;direction:ltr;block-progression:tb;writing-mode:lr-tb;baseline-shift:baseline;text-anchor:start;white-space:normal;clip-rule:nonzero;display:inline;overflow:visible;visibility:visible;opacity:1;isolation:auto;mix-blend-mode:normal;color-interpolation:sRGB;color-interpolation-filters:linearRGB;solid-color:#000000;solid-opacity:1;fill:#000000;fill-opacity:1;fill-rule:evenodd;stroke:none;stroke-width:1.5;stroke-linecap:butt;stroke-linejoin:miter;stroke-miterlimit:4;stroke-dasharray:none;stroke-dashoffset:0;stroke-opacity:1;color-rendering:auto;image-rendering:auto;shape-rendering:auto;text-rendering:auto;enable-background:accumulate" d="m 33.044922,978.9668 -6.439453,6.43945 0,13.06055 0.75,0 12.310547,0 6.439453,-6.43946 0,-13.06054 -13.060547,0 z m 0.621094,1.5 10.939453,0 0,10.93945 -5.560547,5.56055 -10.939453,0 0,-10.93946 5.560547,-5.56054 z"/><path style="color:#000000;font-style:normal;font-variant:normal;font-weight:normal;font-stretch:normal;font-size:medium;line-height:normal;font-family:sans-serif;text-indent:0;text-align:start;text-decoration:none;text-decoration-line:none;text-decoration-style:solid;text-decoration-color:#000000;letter-spacing:normal;word-spacing:normal;text-transform:none;direction:ltr;block-progression:tb;writing-mode:lr-tb;baseline-shift:baseline;text-anchor:start;white-space:normal;clip-rule:nonzero;display:inline;overflow:visible;visibility:visible;opacity:1;isolation:auto;mix-blend-mode:normal;color-interpolation:sRGB;color-interpolation-filters:linearRGB;solid-color:#000000;solid-opacity:1;fill:#000000;fill-opacity:1;fill-rule:evenodd;stroke:none;stroke-width:1.5;stroke-linecap:butt;stroke-linejoin:miter;stroke-miterlimit:4;stroke-dasharray:none;stroke-dashoffset:0;stroke-opacity:1;color-rendering:auto;image-rendering:auto;shape-rendering:auto;text-rendering:auto;enable-background:accumulate" d="m 44.824219,979.1875 -5.779297,5.7793 -11.689453,0 0,1.5 12.310547,0 6.21875,-6.21875 -1.060547,-1.06055 z"/><path style="color:#000000;font-style:normal;font-variant:normal;font-weight:normal;font-stretch:normal;font-size:medium;line-height:normal;font-family:sans-serif;text-indent:0;text-align:start;text-decoration:none;text-decoration-line:none;text-decoration-style:solid;text-decoration-color:#000000;letter-spacing:normal;word-spacing:normal;text-transform:none;direction:ltr;block-progression:tb;writing-mode:lr-tb;baseline-shift:baseline;text-anchor:start;white-space:normal;clip-rule:nonzero;display:inline;overflow:visible;visibility:visible;opacity:1;isolation:auto;mix-blend-mode:normal;color-interpolation:sRGB;color-interpolation-filters:linearRGB;solid-color:#000000;solid-opacity:1;fill:#000000;fill-opacity:1;fill-rule:evenodd;stroke:none;stroke-width:1.5;stroke-linecap:butt;stroke-linejoin:miter;stroke-miterlimit:4;stroke-dasharray:none;stroke-dashoffset:0;stroke-opacity:1;color-rendering:auto;image-rendering:auto;shape-rendering:auto;text-rendering:auto;enable-background:accumulate" d="m 38.605469,985.7168 0,12 1.5,0 0,-12 -1.5,0 z"/><path style="color:#000000;font-style:normal;font-variant:normal;font-weight:normal;font-stretch:normal;font-size:medium;line-height:normal;font-family:sans-serif;text-indent:0;text-align:start;text-decoration:none;text-decoration-line:none;text-decoration-style:solid;text-decoration-color:#000000;letter-spacing:normal;word-spacing:normal;text-transform:none;direction:ltr;block-progression:tb;writing-mode:lr-tb;baseline-shift:baseline;text-anchor:start;white-space:normal;clip-rule:nonzero;display:inline;overflow:visible;visibility:visible;opacity:1;isolation:auto;mix-blend-mode:normal;color-interpolation:sRGB;color-interpolation-filters:linearRGB;solid-color:#000000;solid-opacity:1;fill:#000000;fill-opacity:1;fill-rule:nonzero;stroke:none;stroke-width:1.5;stroke-linecap:butt;stroke-linejoin:miter;stroke-miterlimit:4;stroke-dasharray:none;stroke-dashoffset:0;stroke-opacity:1;color-rendering:auto;image-rendering:auto;shape-rendering:auto;text-rendering:auto;enable-background:accumulate" d="m 63.603516,1008.8477 c -1.151162,0 -2.464009,0.4916 -3.91211,1.1718 -1.448101,0.6802 -3.000318,1.573 -4.435547,2.4629 -2.870457,1.7799 -5.27539,3.5547 -5.27539,3.5547 l -0.900391,0.666 0.957031,0.5801 c 0,0 2.406575,1.4554 5.275391,2.9141 1.434408,0.7293 2.985868,1.4614 4.429688,2.0175 1.443819,0.5561 2.753761,0.9532 3.861328,0.9532 1.123932,0 2.441612,-0.4328 3.894531,-1.0352 1.452919,-0.6024 3.014147,-1.3941 4.458984,-2.1836 2.889675,-1.5789 5.314453,-3.1543 5.314453,-3.1543 l 0.945313,-0.6133 -0.929688,-0.6347 c 0,0 -2.426317,-1.6572 -5.316406,-3.3164 -1.445044,-0.8296 -3.006949,-1.6615 -4.460937,-2.295 -1.453988,-0.6334 -2.771417,-1.0878 -3.90625,-1.0878 z m 0,1.5 c 0.683216,0 1.933606,0.3647 3.30664,0.9628 1.373034,0.5982 2.89916,1.4082 4.314453,2.2207 2.277679,1.3077 3.506774,2.1574 4.197266,2.6192 -0.696956,0.4434 -1.913322,1.242 -4.183594,2.4824 -1.4155,0.7734 -2.942303,1.5455 -4.316406,2.1152 -1.374103,0.5698 -2.624242,0.92 -3.318359,0.92 -0.710434,0 -1.954336,-0.3267 -3.322266,-0.8535 -1.36793,-0.5269 -2.883471,-1.2385 -4.289062,-1.9532 -2.243701,-1.1408 -3.43292,-1.8685 -4.132813,-2.2832 0.67424,-0.4878 1.914409,-1.4128 4.1875,-2.8222 1.404771,-0.8711 2.919554,-1.7384 4.283203,-2.3789 1.363649,-0.6406 2.606599,-1.0293 3.273438,-1.0293 z"/><path style="color:#000000;font-style:normal;font-variant:normal;font-weight:normal;font-stretch:normal;font-size:medium;line-height:normal;font-family:sans-serif;text-indent:0;text-align:start;text-decoration:none;text-decoration-line:none;text-decoration-style:solid;text-decoration-color:#000000;letter-spacing:normal;word-spacing:normal;text-transform:none;direction:ltr;block-progression:tb;writing-mode:lr-tb;baseline-shift:baseline;text-anchor:start;white-space:normal;clip-rule:nonzero;display:inline;overflow:visible;visibility:visible;opacity:1;isolation:auto;mix-blend-mode:normal;color-interpolation:sRGB;color-interpolation-filters:linearRGB;solid-color:#000000;solid-opacity:1;fill:#000000;fill-opacity:1;fill-rule:nonzero;stroke:none;stroke-width:1.5;stroke-linecap:butt;stroke-linejoin:miter;stroke-miterlimit:4;stroke-dasharray:none;stroke-dashoffset:0;stroke-opacity:1;color-rendering:auto;image-rendering:auto;shape-rendering:auto;text-rendering:auto;enable-background:accumulate" d="m 63.644531,1012.0527 c -2.212654,0 -4.041015,1.7687 -4.041015,3.9551 0,2.1864 1.828361,3.9551 4.041015,3.9551 2.212654,0 4.042969,-1.7687 4.042969,-3.9551 0,-2.1864 -1.830315,-3.9551 -4.042969,-3.9551 z m 0,1.5 c 1.423382,0 2.542969,1.1014 2.542969,2.4551 0,1.3538 -1.119587,2.4551 -2.542969,2.4551 -1.423382,0 -2.541015,-1.1013 -2.541015,-2.4551 0,-1.3537 1.117633,-2.4551 2.541015,-2.4551 z"/></g><text x="0" y="115" fill="#000000" font-size="5px" font-weight="bold" font-family="'Helvetica Neue', Helvetica, Arial-Unicode, Arial, Sans-serif">Created by anbileru adaleru</text><text x="0" y="120" fill="#000000" font-size="5px" font-weight="bold" font-family="'Helvetica Neue', Helvetica, Arial-Unicode, Arial, Sans-serif">from the Noun Project</text></svg>