<svg xmlns:dc="http://purl.org/dc/elements/1.1/" xmlns:cc="http://creativecommons.org/ns#" xmlns:rdf="http://www.w3.org/1999/02/22-rdf-syntax-ns#" xmlns:svg="http://www.w3.org/2000/svg" xmlns="http://www.w3.org/2000/svg" xmlns:sodipodi="http://sodipodi.sourceforge.net/DTD/sodipodi-0.dtd" xmlns:inkscape="http://www.inkscape.org/namespaces/inkscape" version="1.1" x="0px" y="0px" viewBox="0 0 100 125"><g transform="translate(0,-952.36218)"><path d="m 49.99998,1033.3621 c -0.4628,0 -1.0773,-0.2799 -1.3755,-0.5639 l -17.0003,-15.9997 c -0.7723,-0.747 -0.8618,-1.9572 -0.078,-2.8281 0.7007,-0.7786 2.0673,-0.798 2.8282,-0.078 l 13.6252,12.8435 0,-65.37364 c 0,-1.1046 0.8954,-2 2,-2 1.1046,0 2.0001,0.8954 2.0001,2 l 0,65.37364 13.6252,-12.8435 c 0.7608,-0.7199 2.0938,-0.6688 2.8281,0.078 0.7752,0.7885 0.7062,2.0925 -0.078,2.8281 l -17.0002,15.9997 c -0.4611,0.4701 -0.9052,0.556 -1.3748,0.5639 z" style="text-indent:0;text-transform:none;direction:ltr;block-progression:tb;baseline-shift:baseline;color:#000000;enable-background:accumulate;" fill="#000000" fill-opacity="1" stroke="none" marker="none" visibility="visible" display="inline" overflow="visible"/><path style="text-indent:0;text-transform:none;direction:ltr;block-progression:tb;baseline-shift:baseline;color:#000000;enable-background:accumulate;" d="m 16.78169,1021.3742 a 2.0001811,1.9965997 0 0 0 -1.78123,2.0276 l 0,19.964 a 2.0001811,1.9965997 0 0 0 1.99998,1.9964 l 65.99938,0 a 2.0001811,1.9965997 0 0 0 1.99998,-1.9964 l 0,-19.964 a 2.0001811,1.9965997 0 1 0 -3.99996,0 l 0,17.9676 -61.99942,0 0,-17.9676 a 2.0001811,1.9965997 0 0 0 -2.21873,-2.0276 z" fill="#000000" fill-opacity="1" stroke="none" marker="none" visibility="visible" display="inline" overflow="visible"/></g><text x="0" y="115" fill="#000000" font-size="5px" font-weight="bold" font-family="'Helvetica Neue', Helvetica, Arial-Unicode, Arial, Sans-serif">Created by Eagle Eye</text><text x="0" y="120" fill="#000000" font-size="5px" font-weight="bold" font-family="'Helvetica Neue', Helvetica, Arial-Unicode, Arial, Sans-serif">from the Noun Project</text></svg>