<svg xmlns="http://www.w3.org/2000/svg" xmlns:xlink="http://www.w3.org/1999/xlink" version="1.1" x="0px" y="0px" viewBox="0 0 100 125" enable-background="new 0 0 100 100" xml:space="preserve"><path fill="#000000" d="M92.025,37.839c-1.919-1.92-4.472-2.977-7.185-2.977c-2.715,0-5.267,1.057-7.186,2.977  c-1.919,1.917-2.976,4.469-2.976,7.184c0,0.472,0.073,0.929,0.136,1.389l-10.313,2.714c-0.609-2.632-1.897-5.14-3.947-7.191  c-2.344-2.343-5.276-3.698-8.319-4.157V25.054c1.858-0.417,3.57-1.33,4.949-2.71c1.919-1.917,2.976-4.469,2.976-7.184  s-1.057-5.266-2.976-7.184C55.267,6.057,52.714,5,50.001,5c-2.715,0-5.267,1.057-7.186,2.977c-1.919,1.917-2.976,4.469-2.976,7.184  s1.057,5.266,2.976,7.184c1.858,1.859,4.315,2.888,6.933,2.952v12.29c-3.735,0.063-7.452,1.498-10.302,4.347  c-2.084,2.083-3.389,4.636-3.983,7.314l-10.289-2.708c0.075-0.501,0.148-1.003,0.148-1.518c0-2.715-1.057-5.266-2.976-7.184  c-1.919-1.92-4.472-2.977-7.185-2.977c-2.715,0-5.267,1.057-7.186,2.977c-1.919,1.917-2.976,4.469-2.976,7.184  c0,2.715,1.057,5.266,2.976,7.184c1.919,1.92,4.472,2.977,7.186,2.977c2.713,0,5.266-1.057,7.185-2.977  c0.95-0.95,1.687-2.057,2.19-3.26l10.61,2.792c-0.204,4.067,1.193,8.198,4.3,11.305c0.734,0.735,1.529,1.375,2.363,1.924  l-7.751,10.52c-1.239-0.526-2.58-0.809-3.966-0.809c-2.715,0-5.267,1.057-7.186,2.977c-1.919,1.917-2.976,4.469-2.976,7.184  c0,2.715,1.057,5.266,2.976,7.184C24.825,93.943,27.378,95,30.092,95c2.713,0,5.266-1.057,7.185-2.977  c1.919-1.917,2.976-4.469,2.976-7.184c0-2.715-1.057-5.266-2.976-7.184c-0.332-0.332-0.706-0.604-1.074-0.883l7.834-10.633  c4.291,1.872,9.247,1.603,13.356-0.752l8.579,11.643c-0.254,0.209-0.525,0.39-0.761,0.625c-1.919,1.917-2.976,4.469-2.976,7.184  c0,2.715,1.057,5.266,2.976,7.184C67.13,93.943,69.683,95,72.397,95c2.713,0,5.266-1.057,7.185-2.977  c1.919-1.917,2.976-4.469,2.976-7.184c0-2.715-1.057-5.266-2.976-7.184c-1.919-1.92-4.472-2.977-7.185-2.977  c-1.527,0-2.988,0.368-4.328,1.003L59.432,63.96c0.373-0.307,0.773-0.567,1.123-0.917c3.139-3.139,4.529-7.325,4.287-11.434  l10.577-2.784c0.504,1.25,1.253,2.4,2.235,3.381c1.919,1.92,4.472,2.977,7.186,2.977c2.713,0,5.266-1.057,7.185-2.977  c1.919-1.917,2.976-4.469,2.976-7.184C95.001,42.308,93.943,39.757,92.025,37.839z M20.293,50.156  c-2.744,2.741-7.524,2.739-10.264,0c-1.371-1.371-2.126-3.193-2.126-5.133c0-1.939,0.756-3.762,2.126-5.133s3.193-2.126,5.133-2.126  c1.938,0,3.761,0.756,5.131,2.126s2.126,3.193,2.126,5.133C22.419,46.962,21.663,48.785,20.293,50.156z M37.35,84.839  c0,1.939-0.756,3.762-2.126,5.133c-2.744,2.741-7.525,2.739-10.264,0c-1.371-1.371-2.126-3.193-2.126-5.133  c0-1.939,0.756-3.762,2.126-5.133c1.371-1.371,3.193-2.126,5.133-2.126c1.938,0,3.761,0.756,5.131,2.126  C36.594,81.077,37.35,82.9,37.35,84.839z M44.868,20.293c-1.371-1.371-2.126-3.193-2.126-5.133s0.756-3.762,2.126-5.133  s3.193-2.126,5.133-2.126c1.938,0,3.761,0.756,5.131,2.126s2.126,3.193,2.126,5.133s-0.756,3.762-2.126,5.133  C52.388,23.035,47.607,23.032,44.868,20.293z M72.397,77.58c1.938,0,3.761,0.756,5.131,2.126c1.371,1.371,2.126,3.193,2.126,5.133  c0,1.939-0.756,3.762-2.126,5.133c-2.744,2.741-7.525,2.739-10.264,0c-1.371-1.371-2.126-3.193-2.126-5.133  c0-1.939,0.756-3.762,2.126-5.133C68.635,78.336,70.458,77.58,72.397,77.58z M89.971,50.156c-2.744,2.741-7.525,2.739-10.264,0  c-1.371-1.371-2.126-3.193-2.126-5.133c0-1.939,0.756-3.762,2.126-5.133c1.371-1.371,3.193-2.126,5.133-2.126  c1.938,0,3.761,0.756,5.131,2.126c1.371,1.371,2.126,3.193,2.126,5.133C92.098,46.962,91.342,48.785,89.971,50.156z"/><text x="0" y="115" fill="#000000" font-size="5px" font-weight="bold" font-family="'Helvetica Neue', Helvetica, Arial-Unicode, Arial, Sans-serif">Created by Nick Abrams</text><text x="0" y="120" fill="#000000" font-size="5px" font-weight="bold" font-family="'Helvetica Neue', Helvetica, Arial-Unicode, Arial, Sans-serif">from the Noun Project</text></svg>