<svg xmlns="http://www.w3.org/2000/svg" xmlns:xlink="http://www.w3.org/1999/xlink" version="1.1" x="0px" y="0px" viewBox="0 0 100 125" enable-background="new 0 0 100 100" xml:space="preserve"><g><path d="M83.383,43.212c-1.641,0-2.533-0.879-3.042-2.982c2.039-1.89,3.82-5.244,4.459-11.097   c0.509-4.659,0.455-8.255-1.308-10.594c0.324-0.938,0.552-2.1,0.552-3.576c0,0-2.283-1.189-8.656-1.189   c-4.126,0-6.611,1.571-8.019,2.989c-0.715,0.371-1.326,0.819-1.821,1.371c-2.078,2.317-2.145,6.073-1.605,10.999   c0.639,5.853,2.42,9.207,4.458,11.097c-0.509,2.103-1.401,2.982-3.042,2.982c-1.261,0-2.401,0.106-3.433,0.311   c0.579-5.306,0.507-9.349-1.722-11.835c-1.224-1.366-3.049-2.19-5.681-2.568c-1.108-0.205-2.376-0.323-3.839-0.323   c-1.521,0-2.83,0.129-3.973,0.35c-2.535,0.389-4.307,1.206-5.503,2.54c-2.231,2.488-2.301,6.538-1.72,11.854   c0.029,0.263,0.063,0.513,0.096,0.766c-1.385-0.758-2.928-1.314-4.592-1.581c-2.619-0.421-3.048-2.647-3.117-3.462   c0.31-0.338,0.608-0.703,0.897-1.083c2.451-0.74,4.257-2.233,5.374-4.602c3.032-6.433,1.384-15.079-4.792-19.258   c-3.442-2.329-8.404-2.565-12.139-0.751c-0.267,0.13-0.791,0.588-1.078,0.559c-7.126-0.803-7.828,9.883-7.235,14.469   c0.452,3.49,1.378,7.034,4.522,9.2c0.594,0.409,1.346,0.568,2.074,0.653c0.027,0.003,0.065,0.001,0.097,0.002   c0.222,0.279,0.447,0.555,0.681,0.81c-0.069,0.814-0.497,3.041-3.117,3.463C10.895,43.736,6.17,48.65,6.17,54.157   c0,0.553,0.447,1,1,1s1-0.447,1-1c0-3.537,2.438-6.779,6.025-8.444c0.843,5.172,5.886,9.188,11.882,9.188   c5.996,0,11.038-4.017,11.88-9.189c0.749,0.348,1.439,0.772,2.076,1.246c0.921,4.29,2.523,6.957,4.303,8.59   c-0.28,1.19-0.742,2.35-1.771,2.939l-0.495,0.213c-0.331,0.112-0.694,0.191-1.13,0.191c-3.742,0-6.33,0.599-8.105,1.755   c0.618,0.404,1.215,0.837,1.788,1.299c1.313-0.643,3.104-0.979,5.546-1.037l0.049,0.175c1.234,4.446,7.552,8.18,7.82,8.336   l0.643,0.376l0.877-1.475l0.116,0.162l-1.257,3.509h2.29h2.29l-1.257-3.519l0.116-0.152l0.877,1.475l0.643-0.376   c0.269-0.156,6.586-3.89,7.82-8.336l0.049-0.175c7.677,0.182,8.963,3.087,8.963,9.758c0,0.553,0.447,1,1,1s1-0.447,1-1   c0-7.637-1.87-11.775-11.734-11.775c-0.437,0-0.801-0.079-1.133-0.192l-0.487-0.21c-1.023-0.584-1.488-1.737-1.774-2.94   c1.956-1.793,3.696-4.834,4.554-9.904c0.827-0.221,1.754-0.361,2.808-0.408c0.518,3.263,4.752,5.749,9.99,5.749   c5.237,0,9.47-2.484,9.989-5.746c5.571,0.28,7.871,2.923,7.871,8.917c0,0.553,0.447,1,1,1s1-0.447,1-1   C94.289,46.69,90.823,43.212,83.383,43.212z M18.201,29.025c0-1.005,0.014-1.948,0.052-2.838c1.513-1.77,3.3-4.174,4.031-6.401   c0,0,1.119,3.232,4.102,4.289c2.798,0.991,6.211,1.723,7.548,3.245c0.011,0.551,0.017,1.115,0.017,1.705   c0,6.537-5.248,11.515-7.875,11.515S18.201,35.562,18.201,29.025z M26.076,53.401c-5.386,0-9.895-3.637-10.45-8.254   c0.596-0.191,1.214-0.342,1.852-0.445c2.693-0.433,3.979-2.232,4.505-3.857c1.402,1.077,2.853,1.694,4.094,1.694   c1.241,0,2.691-0.617,4.093-1.694c0.526,1.625,1.812,3.423,4.505,3.856c0.638,0.103,1.256,0.254,1.852,0.445   C35.97,49.764,31.462,53.401,26.076,53.401z M48.164,67.729c-1.514-0.987-5.307-3.696-6.378-6.661l0.251-0.277   c0.383-0.07,0.736-0.188,1.073-0.334c1.751,1.879,4.277,4.267,6.409,4.995L48.164,67.729z M50.706,64.172   c-1.488,0-4.155-2.269-6.315-4.542c0.723-0.673,1.271-1.625,1.658-2.831c1.661,0.941,3.337,1.196,4.657,1.196   c1.321,0,2.998-0.256,4.659-1.197c0.388,1.206,0.936,2.158,1.657,2.83C54.862,61.902,52.195,64.172,50.706,64.172z M50.706,52.889   c-0.553,0-1,0.447-1,1v1.023H48.19c-0.967,0-1.75-0.783-1.75-1.75s0.783-1.75,1.75-1.75h4.776c0.967,0,1.75,0.783,1.75,1.75   s-0.783,1.75-1.75,1.75h-1.261v-1.023C51.706,53.336,51.259,52.889,50.706,52.889z M58.303,60.456   c0.334,0.145,0.685,0.262,1.064,0.332l0.259,0.279c-1.071,2.96-4.864,5.672-6.378,6.661l-1.354-2.277   C54.026,64.723,56.552,62.335,58.303,60.456z M59.936,43.325c-0.331,3.031-0.972,5.534-1.897,7.497   c-1.032-1.727-7.332-1.851-7.332-1.851s-6.3,0.125-7.332,1.851c-0.926-1.963-1.566-4.466-1.898-7.497   c-0.18-1.646-0.275-3.06-0.287-4.287c0.604-1.226,1.473-2.624,2.613-3.535l-0.183-0.947c0.177,0.158,0.389,0.335,0.632,0.529   c0.019,0.017,0.037,0.041,0.055,0.058c0.003-0.002,0.007-0.003,0.01-0.005c2.287,1.806,7.392,4.854,15.872,5.044   C60.146,41.128,60.062,42.168,59.936,43.325z M65.931,28.916c-0.174-1.589-0.264-2.945-0.267-4.109   c0.643-1.263,1.551-2.595,2.685-3.075c2.949,1.646,4.573,2.104,7.711,2.104c3.828,0,5.51-1.372,5.51-1.372s0.8,0.912,1.507,2.116   c0.009,1.214-0.08,2.643-0.265,4.337c-0.579,5.302-2.515,11.624-8.44,11.624S66.51,34.219,65.931,28.916z M74.429,49.486   c-4.327,0-7.961-1.896-8.483-4.321c2.023-0.2,3.427-1.431,4.18-3.688c1.517,0.834,3.041,1.063,4.246,1.063   c1.205,0,2.729-0.229,4.245-1.062c0.766,2.299,2.21,3.533,4.294,3.697C82.38,47.595,78.752,49.486,74.429,49.486z"/><path d="M38.953,86.32c-0.135-0.535-0.68-0.857-1.213-0.729l-3.868,0.965c1.175-2.183,1.8-4.641,1.8-7.134   c0-8.311-6.761-15.071-15.071-15.071S5.53,71.112,5.53,79.423c0,8.31,6.761,15.07,15.071,15.07c2.167,0,4.26-0.45,6.22-1.339   c0.503-0.229,0.726-0.821,0.498-1.324c-0.229-0.503-0.82-0.727-1.324-0.498c-1.698,0.771-3.514,1.161-5.394,1.161   c-7.208,0-13.071-5.863-13.071-13.07c0-1.926,0.429-3.75,1.18-5.397c0.186,1.123,0.699,2.202,1.564,3.067   c1.103,1.103,2.551,1.654,3.999,1.654s2.896-0.552,3.999-1.654c2.204-2.205,2.204-5.793,0-7.997   c-0.844-0.844-1.91-1.374-3.064-1.566c1.647-0.75,3.469-1.178,5.393-1.178c7.208,0,13.071,5.863,13.071,13.071   c0,2.234-0.574,4.44-1.659,6.379c-0.003,0.005-0.002,0.01-0.005,0.014l-1.075-4.314c-0.135-0.535-0.679-0.858-1.213-0.729   c-0.535,0.134-0.861,0.677-0.729,1.213l1.601,6.419c0.114,0.454,0.521,0.758,0.97,0.758c0.08,0,0.162-0.01,0.243-0.029l6.419-1.601   C38.76,87.399,39.086,86.856,38.953,86.32z M16.858,75.679c-1.381,1.381-3.789,1.381-5.17,0c-1.425-1.426-1.425-3.744,0-5.169   c0.69-0.69,1.608-1.071,2.585-1.071s1.895,0.381,2.585,1.071C18.283,71.935,18.283,74.253,16.858,75.679z"/></g><text x="0" y="115" fill="#000000" font-size="5px" font-weight="bold" font-family="'Helvetica Neue', Helvetica, Arial-Unicode, Arial, Sans-serif">Created by Roy Verhaag</text><text x="0" y="120" fill="#000000" font-size="5px" font-weight="bold" font-family="'Helvetica Neue', Helvetica, Arial-Unicode, Arial, Sans-serif">from the Noun Project</text></svg>