<svg xmlns="http://www.w3.org/2000/svg" xmlns:xlink="http://www.w3.org/1999/xlink" version="1.1" x="0px" y="0px" viewBox="0 0 100 125" enable-background="new 0 0 100 100" xml:space="preserve"><path d="M60.4,48.1h-8.5V37.9c0-1.1-0.9-2.1-2.1-2.1c-1.1,0-2.1,0.9-2.1,2.1v12.2c0,1.1,0.9,2.1,2.1,2.1h10.6c1.1,0,2.1-0.9,2.1-2.1  S61.6,48.1,60.4,48.1z"/><path d="M96.2,46.9l-4.8-8.4v-9.3c0-2.1-1.1-4-2.9-5.1l-8.1-4.7l-4.8-8.3c-1-1.8-3-2.9-5.1-2.9h-9.6l-8.2-4.7c-1.8-1-4.1-1-5.9,0  l-8.2,4.7h-9.4c-2.1,0-4,1.1-5.1,2.9l-4.7,8.1l-8.4,4.8c-1.8,1-2.9,3-2.9,5.1v9.6l-4.6,8c-0.5,0.9-0.8,1.9-0.8,2.9s0.3,2,0.8,2.9  l4.6,8v9.6c0,2.1,1.1,4,2.9,5.1l8.4,4.8l4.7,8.1c1,1.8,3,2.9,5.1,2.9h9.4l8.2,4.7c0.9,0.5,1.9,0.8,2.9,0.8s2-0.3,2.9-0.8l8.2-4.7  h9.6c2.1,0,4-1.1,5.1-2.9l4.8-8.3l8.1-4.7c1.8-1,2.9-3,2.9-5.1v-9.3l4.8-8.4C97.2,50.9,97.2,48.7,96.2,46.9z M49.6,70.9  c-12.2,0-22.1-9.9-22.1-22.1c0-12.2,9.9-22.1,22.1-22.1c12.2,0,22.1,9.9,22.1,22.1C71.7,61,61.8,70.9,49.6,70.9z"/><text x="0" y="115" fill="#000000" font-size="5px" font-weight="bold" font-family="'Helvetica Neue', Helvetica, Arial-Unicode, Arial, Sans-serif">Created by Aneeque Ahmed</text><text x="0" y="120" fill="#000000" font-size="5px" font-weight="bold" font-family="'Helvetica Neue', Helvetica, Arial-Unicode, Arial, Sans-serif">from the Noun Project</text></svg>