<svg xmlns="http://www.w3.org/2000/svg" xmlns:xlink="http://www.w3.org/1999/xlink" version="1.1" x="0px" y="0px" viewBox="0 0 100 125" enable-background="new 0 0 100 100" xml:space="preserve"><g><defs><rect id="ei" x="281" y="-6" width="458" height="160"/></defs><clipPath><use xlink:href="#ei" overflow="visible"/></clipPath></g><g enable-background="new    "><g><defs><rect id="eh" x="283" y="-4" width="454" height="156"/></defs><clipPath id="d"><use xlink:href="#eh" overflow="visible"/></clipPath><g clip-path="url(#d)"><defs><rect id="eg" x="283" y="-2" width="454" height="154"/></defs><clipPath><use xlink:href="#eg" overflow="visible"/></clipPath></g><g clip-path="url(#d)"><defs><rect id="ef" x="283" y="-4" width="454" height="156"/></defs><clipPath id="ee"><use xlink:href="#ef" overflow="visible"/></clipPath><g clip-path="url(#ee)" enable-background="new    "><g><defs><rect id="ed" x="279" y="1" width="462" height="148"/></defs><clipPath id="b"><use xlink:href="#ed" overflow="visible"/></clipPath><g clip-path="url(#b)"><defs><rect id="ec" x="290" y="4" width="441" height="142"/></defs><clipPath><use xlink:href="#ec" overflow="visible"/></clipPath></g><g clip-path="url(#b)"><defs><path id="eb" d="M700.087,135.708l-0.586,0.153c7.081,2.947,16.771,4.638,29.499,4.638h1.546l-1.253-0.905         c-17.269-12.48-23.611-29.802-23.611-56.342c0.094-2.676,0.031-5.094-0.184-7.238l0.003-46.006         c0-14.088-11.418-25.509-25.504-25.509H316.004c-14.087,0-25.504,11.417-25.504,25.509v89.982         c0,14.088,11.418,25.509,25.504,25.509h363.992C687.941,145.5,695.283,141.844,700.087,135.708z M728.838,140         c-0.231,0-0.461-0.001-0.689-0.003c0.185,0.137,0.371,0.272,0.558,0.408L728.838,140z M728.316,139.498         c0.183,0.136,0.368,0.272,0.553,0.407L729,139.5C728.771,139.5,728.543,139.499,728.316,139.498z"/></defs><clipPath id="ea"><use xlink:href="#eb" overflow="visible"/></clipPath><g clip-path="url(#ea)"><defs><rect id="dz" x="279" y="-9" width="462" height="166"/></defs><clipPath id="dy"><use xlink:href="#dz" overflow="visible"/></clipPath><path clip-path="url(#dy)" fill-rule="evenodd" clip-rule="evenodd" fill="#000000" d="M-224.306,135.4         c-4.577,5.845-11.698,9.6-19.697,9.6h-363.992c-13.81,0-25.004-11.197-25.004-25.009V30.009C-633,16.191-621.805,5-607.996,5         h363.992C-230.194,5-219,16.197-219,30.009v46.056c0.21,2.087,0.276,4.475,0.182,7.188c0,22.534,4.331,42.663,23.818,56.747         C-209.145,140-218.36,137.874-224.306,135.4z M-643-5h462v166h-462V-5z"/></g></g><g clip-path="url(#b)"><defs><rect id="dx" x="290" y="4" width="441" height="142"/></defs><clipPath><use xlink:href="#dx" overflow="visible"/></clipPath></g><g clip-path="url(#b)"><defs><path id="dw" d="M700.087,135.708l-0.586,0.153c7.081,2.947,16.771,4.638,29.499,4.638h1.546l-1.253-0.905         c-17.269-12.48-23.611-29.802-23.611-56.342c0.094-2.676,0.031-5.094-0.184-7.238l0.003-46.006         c0-14.088-11.418-25.509-25.504-25.509H316.004c-14.087,0-25.504,11.417-25.504,25.509v89.982         c0,14.088,11.418,25.509,25.504,25.509h363.992C687.941,145.5,695.283,141.844,700.087,135.708z M728.838,140         c-0.231,0-0.461-0.001-0.689-0.003c0.185,0.137,0.371,0.272,0.558,0.408L728.838,140z M728.316,139.498         c0.183,0.136,0.368,0.272,0.553,0.407L729,139.5C728.771,139.5,728.543,139.499,728.316,139.498z"/></defs><clipPath id="dv"><use xlink:href="#dw" overflow="visible"/></clipPath><g clip-path="url(#dv)"><defs><rect id="du" x="279" y="-9" width="462" height="166"/></defs><clipPath id="dt"><use xlink:href="#du" overflow="visible"/></clipPath><path clip-path="url(#dt)" fill-rule="evenodd" clip-rule="evenodd" fill="#000000" d="M-224.306,135.4         c-4.577,5.845-11.698,9.6-19.697,9.6h-363.992c-13.81,0-25.004-11.197-25.004-25.009V30.009C-633,16.191-621.805,5-607.996,5         h363.992C-230.194,5-219,16.197-219,30.009v46.056c0.21,2.087,0.276,4.475,0.182,7.188c0,22.534,4.331,42.663,23.818,56.747         C-209.145,140-218.36,137.874-224.306,135.4z M-643-5h462v162h-462V-5z"/></g></g><g clip-path="url(#b)"><defs><path id="ds" d="M699.694,135.4c-4.577,5.845-11.698,9.6-19.697,9.6H316.004C302.194,145,291,133.803,291,119.991         V30.009C291,16.191,302.195,5,316.004,5h363.992C693.806,5,705,16.197,705,30.009v46.056         c0.209,2.087,0.276,4.475,0.182,7.188c0,22.534,4.331,42.663,23.818,56.747C714.855,140,705.64,137.874,699.694,135.4z          M280-6h460v162H280V-6z"/></defs><clipPath id="dr"><use xlink:href="#ds" overflow="visible"/></clipPath><g clip-path="url(#dr)"><defs><path id="dq" d="M700.481,136.016l-1.172,0.307C706.455,139.297,716.21,141,729,141h3.091l-2.505-1.81          c-17.117-12.37-23.404-29.541-23.404-55.937c0.094-2.68,0.031-5.12-0.187-7.288l0.005,0.1V30.009          C706,15.645,694.358,4,679.996,4H316.004C301.64,4,290,15.641,290,30.009v89.982C290,134.355,301.642,146,316.004,146          h363.992C688.096,146,695.583,142.272,700.481,136.016z M698.906,134.783c-4.523,5.777-11.431,9.217-18.91,9.217H316.004          C302.747,144,292,133.251,292,119.991V30.009C292,16.745,302.745,6,316.004,6h363.992C693.253,6,704,16.749,704,30.009          v46.056l0.005,0.1c0.208,2.073,0.269,4.424,0.177,7.053c-0.001,27.01,6.507,44.783,24.232,57.593L729,139          c-12.54,0-22.037-1.658-28.922-4.523l-0.702-0.292L698.906,134.783z"/></defs><clipPath id="dp"><use xlink:href="#dq" overflow="visible"/></clipPath><g clip-path="url(#dp)"><defs><rect id="do" x="291" y="5" width="438" height="140"/></defs><clipPath id="dn"><use xlink:href="#do" overflow="visible"/></clipPath><g opacity="0" clip-path="url(#dn)"><g opacity="0"><g><defs><rect id="dm" x="291" y="5" width="438" height="140"/></defs><clipPath><use xlink:href="#dm" overflow="visible"/></clipPath></g></g></g></g></g></g><g clip-path="url(#b)"><defs><path id="dl" d="M699.694,135.4c-4.577,5.845-11.698,9.6-19.697,9.6H316.004C302.194,145,291,133.803,291,119.991         V30.009C291,16.191,302.195,5,316.004,5h363.992C693.806,5,705,16.197,705,30.009v46.056         c0.209,2.087,0.276,4.475,0.182,7.188c0,22.534,4.331,42.663,23.818,56.747C714.855,140,705.64,137.874,699.694,135.4z          M280-6h460v162H280V-6z"/></defs><clipPath id="dk"><use xlink:href="#dl" overflow="visible"/></clipPath><g clip-path="url(#dk)"><defs><path id="dj" d="M700.481,136.016l-1.172,0.307C706.455,139.297,716.21,141,729,141h3.091l-2.505-1.81          c-17.117-12.37-23.404-29.541-23.404-55.937c0.094-2.68,0.031-5.12-0.187-7.288l0.005,0.1V30.009          C706,15.645,694.358,4,679.996,4H316.004C301.64,4,290,15.641,290,30.009v89.982C290,134.355,301.642,146,316.004,146          h363.992C688.096,146,695.583,142.272,700.481,136.016z M698.906,134.783c-4.523,5.777-11.431,9.217-18.91,9.217H316.004          C302.747,144,292,133.251,292,119.991V30.009C292,16.745,302.745,6,316.004,6h363.992C693.253,6,704,16.749,704,30.009          v46.056l0.005,0.1c0.208,2.073,0.269,4.424,0.177,7.053c-0.001,27.01,6.507,44.783,24.232,57.593L729,139          c-12.54,0-22.037-1.658-28.922-4.523l-0.702-0.292L698.906,134.783z"/></defs><clipPath id="di"><use xlink:href="#dj" overflow="visible"/></clipPath><g clip-path="url(#di)"><defs><rect id="dh" x="279" y="-9" width="462" height="166"/></defs><clipPath id="dg"><use xlink:href="#dh" overflow="visible"/></clipPath><g clip-path="url(#dg)"><g><defs><rect id="df" x="279" y="-9" width="462" height="166"/></defs><clipPath><use xlink:href="#df" overflow="visible"/></clipPath></g></g></g></g></g><g clip-path="url(#b)"><defs><path id="de" d="M699.694,135.4c-4.577,5.845-11.698,9.6-19.697,9.6H316.004C302.194,145,291,133.803,291,119.991         V30.009C291,16.191,302.195,5,316.004,5h363.992C693.806,5,705,16.197,705,30.009v46.056         c0.209,2.087,0.276,4.475,0.182,7.188c0,22.534,4.331,42.663,23.818,56.747C714.855,140,705.64,137.874,699.694,135.4z"/></defs><clipPath id="dd"><use xlink:href="#de" overflow="visible"/></clipPath><g clip-path="url(#dd)"><defs><rect id="dc" x="279" y="-9" width="462" height="166"/></defs><clipPath id="db"><use xlink:href="#dc" overflow="visible"/></clipPath><g clip-path="url(#db)" enable-background="new    "><g><defs><rect id="da" x="291" y="5" width="438" height="140"/></defs><clipPath id="a"><use xlink:href="#da" overflow="visible"/></clipPath><g clip-path="url(#a)"><defs><rect id="cz" x="291" y="5" width="438" height="140"/></defs><clipPath id="h"><use xlink:href="#cz" overflow="visible"/></clipPath><g opacity="0" clip-path="url(#h)"><g opacity="0"><g><defs><rect id="cy" x="291" y="5" width="438" height="140"/></defs><clipPath><use xlink:href="#cy" overflow="visible"/></clipPath></g></g></g><g clip-path="url(#h)"><g><defs><rect id="cx" x="291" y="5" width="438" height="140"/></defs><clipPath><use xlink:href="#cx" overflow="visible"/></clipPath></g></g></g><g clip-path="url(#a)"><defs><rect id="cw" x="291" y="5" width="438" height="140"/></defs><clipPath><use xlink:href="#cw" overflow="visible"/></clipPath></g><g clip-path="url(#a)"><defs><path id="cv" d="M700.087,135.708l-0.586,0.153c7.081,2.947,16.771,4.638,29.499,4.638h1.546l-1.253-0.905             c-17.269-12.48-23.611-29.802-23.611-56.342c0.094-2.676,0.031-5.094-0.184-7.238l0.003-46.006             c0-14.088-11.418-25.509-25.504-25.509H316.004c-14.087,0-25.504,11.417-25.504,25.509v89.982             c0,14.088,11.418,25.509,25.504,25.509h363.992C687.941,145.5,695.283,141.844,700.087,135.708z M728.838,140             c-0.231,0-0.461-0.001-0.689-0.003c0.185,0.137,0.371,0.272,0.558,0.408L728.838,140z M728.316,139.498             c0.183,0.136,0.368,0.272,0.553,0.407L729,139.5C728.771,139.5,728.543,139.499,728.316,139.498z"/></defs><clipPath id="cu"><use xlink:href="#cv" overflow="visible"/></clipPath><g clip-path="url(#cu)"><defs><rect id="ct" x="291" y="5" width="438" height="140"/></defs><clipPath id="cs"><use xlink:href="#ct" overflow="visible"/></clipPath><path clip-path="url(#cs)" fill-rule="evenodd" clip-rule="evenodd" fill="#000000" d="M-224.306,135.4             c-4.577,5.845-11.698,9.6-19.697,9.6h-363.992c-13.81,0-25.004-11.197-25.004-25.009V30.009             C-633,16.191-621.805,5-607.996,5h363.992C-230.194,5-219,16.197-219,30.009v46.056c0.21,2.087,0.276,4.475,0.182,7.188             c0,22.534,4.331,42.663,23.818,56.747C-209.145,140-218.36,137.874-224.306,135.4z M-643-5h462v166h-462V-5z"/></g></g><g clip-path="url(#a)"><defs><rect id="cr" x="291" y="5" width="438" height="140"/></defs><clipPath><use xlink:href="#cr" overflow="visible"/></clipPath></g><g clip-path="url(#a)"><defs><path id="cq" d="M700.087,135.708l-0.586,0.153c7.081,2.947,16.771,4.638,29.499,4.638h1.546l-1.253-0.905             c-17.269-12.48-23.611-29.802-23.611-56.342c0.094-2.676,0.031-5.094-0.184-7.238l0.003-46.006             c0-14.088-11.418-25.509-25.504-25.509H316.004c-14.087,0-25.504,11.417-25.504,25.509v89.982             c0,14.088,11.418,25.509,25.504,25.509h363.992C687.941,145.5,695.283,141.844,700.087,135.708z M728.838,140             c-0.231,0-0.461-0.001-0.689-0.003c0.185,0.137,0.371,0.272,0.558,0.408L728.838,140z M728.316,139.498             c0.183,0.136,0.368,0.272,0.553,0.407L729,139.5C728.771,139.5,728.543,139.499,728.316,139.498z"/></defs><clipPath id="cp"><use xlink:href="#cq" overflow="visible"/></clipPath><g clip-path="url(#cp)"><defs><rect id="co" x="291" y="5" width="438" height="140"/></defs><clipPath id="cn"><use xlink:href="#co" overflow="visible"/></clipPath><path clip-path="url(#cn)" fill-rule="evenodd" clip-rule="evenodd" fill="#000000" d="M-224.306,135.4             c-4.577,5.845-11.698,9.6-19.697,9.6h-363.992c-13.81,0-25.004-11.197-25.004-25.009V30.009             C-633,16.191-621.805,5-607.996,5h363.992C-230.194,5-219,16.197-219,30.009v46.056c0.21,2.087,0.276,4.475,0.182,7.188             c0,22.534,4.331,42.663,23.818,56.747C-209.145,140-218.36,137.874-224.306,135.4z M-643-5h462v162h-462V-5z"/></g></g><g clip-path="url(#a)"><defs><path id="cm" d="M699.694,135.4c-4.577,5.845-11.698,9.6-19.697,9.6H316.004C302.194,145,291,133.803,291,119.991             V30.009C291,16.191,302.195,5,316.004,5h363.992C693.806,5,705,16.197,705,30.009v46.056             c0.209,2.087,0.276,4.475,0.182,7.188c0,22.534,4.331,42.663,23.818,56.747C714.855,140,705.64,137.874,699.694,135.4z              M280-6h460v162H280V-6z"/></defs><clipPath id="cl"><use xlink:href="#cm" overflow="visible"/></clipPath><g clip-path="url(#cl)"><defs><path id="ck" d="M700.481,136.016l-1.172,0.307C706.455,139.297,716.21,141,729,141h3.091l-2.505-1.81              c-17.117-12.37-23.404-29.541-23.404-55.937c0.094-2.68,0.031-5.12-0.187-7.288l0.005,0.1V30.009              C706,15.645,694.358,4,679.996,4H316.004C301.64,4,290,15.641,290,30.009v89.982C290,134.355,301.642,146,316.004,146              h363.992C688.096,146,695.583,142.272,700.481,136.016z M698.906,134.783c-4.523,5.777-11.431,9.217-18.91,9.217              H316.004C302.747,144,292,133.251,292,119.991V30.009C292,16.745,302.745,6,316.004,6h363.992              C693.253,6,704,16.749,704,30.009v46.056l0.005,0.1c0.208,2.073,0.269,4.424,0.177,7.053              c-0.001,27.01,6.507,44.783,24.232,57.593L729,139c-12.54,0-22.037-1.658-28.922-4.523l-0.702-0.292L698.906,134.783z"/></defs><clipPath id="cj"><use xlink:href="#ck" overflow="visible"/></clipPath><g clip-path="url(#cj)"><defs><rect id="ci" x="291" y="5" width="438" height="140"/></defs><clipPath id="ch"><use xlink:href="#ci" overflow="visible"/></clipPath><g clip-path="url(#ch)"><g><defs><rect id="cg" x="291" y="5" width="438" height="140"/></defs><clipPath><use xlink:href="#cg" overflow="visible"/></clipPath></g></g></g></g></g><g clip-path="url(#a)"><defs><rect id="cf" x="692" y="89" width="35" height="48"/></defs><clipPath><use xlink:href="#cf" overflow="visible"/></clipPath></g><g clip-path="url(#a)"><defs><path id="ce" d="M692,105.832c19.688,36.468,35,30.858,35,30.858S704.031,121.26,705.125,89             C698.562,94.611,695.281,98.818,692,105.832z"/></defs><clipPath id="cd"><use xlink:href="#ce" overflow="visible"/></clipPath><g clip-path="url(#cd)"><defs><rect id="cc" x="291" y="5" width="438" height="140"/></defs><clipPath id="cb"><use xlink:href="#cc" overflow="visible"/></clipPath><path clip-path="url(#cb)" fill-rule="evenodd" clip-rule="evenodd" fill="#000000" d="M578,105.832             c19.688,36.468,35,30.858,35,30.858S590.031,121.26,591.125,89C584.562,94.611,581.281,98.818,578,105.832z M570,81h57             v70h-57V81z"/></g></g><g clip-path="url(#a)"><defs><rect id="ca" x="692" y="89" width="35" height="48"/></defs><clipPath><use xlink:href="#ca" overflow="visible"/></clipPath></g><g clip-path="url(#a)"><defs><path id="bz" d="M692,105.832c19.688,36.468,35,30.858,35,30.858S704.031,121.26,705.125,89             C698.562,94.611,695.281,98.818,692,105.832z"/></defs><clipPath id="by"><use xlink:href="#bz" overflow="visible"/></clipPath><g clip-path="url(#by)"><defs><rect id="bx" x="291" y="5" width="438" height="140"/></defs><clipPath id="bw"><use xlink:href="#bx" overflow="visible"/></clipPath><path clip-path="url(#bw)" fill-rule="evenodd" clip-rule="evenodd" fill="#000000" d="M594,105.832             c19.688,36.468,35,30.858,35,30.858S606.031,121.26,607.125,89C600.562,94.611,597.281,98.818,594,105.832z M588,83h49             v62h-49V83z"/></g></g><g clip-path="url(#a)"><defs><rect id="bv" x="692" y="89" width="35" height="48"/></defs><clipPath><use xlink:href="#bv" overflow="visible"/></clipPath></g><g clip-path="url(#a)"><defs><path id="bu" d="M692,105.832c19.688,36.468,35,30.858,35,30.858S704.031,121.26,705.125,89             C698.562,94.611,695.281,98.818,692,105.832z"/></defs><clipPath id="bt"><use xlink:href="#bu" overflow="visible"/></clipPath><g clip-path="url(#bt)"><defs><rect id="bs" x="291" y="5" width="438" height="140"/></defs><clipPath id="br"><use xlink:href="#bs" overflow="visible"/></clipPath><path clip-path="url(#br)" fill-rule="evenodd" clip-rule="evenodd" fill="#000000" d="M550,105.832             c19.688,36.468,35,30.858,35,30.858S562.031,121.26,563.125,89C556.562,94.611,553.281,98.818,550,105.832z M536,75h71             v82h-71V75z"/></g></g><g clip-path="url(#a)"><defs><rect id="bq" x="291" y="5" width="438" height="140"/></defs><clipPath id="g"><use xlink:href="#bq" overflow="visible"/></clipPath><g clip-path="url(#g)"><defs><rect id="bp" x="658" y="81" width="58" height="66"/></defs><clipPath><use xlink:href="#bp" overflow="visible"/></clipPath></g><g clip-path="url(#g)"><defs><rect id="bo" x="676" y="65" width="45" height="57"/></defs><clipPath><use xlink:href="#bo" overflow="visible"/></clipPath></g></g></g></g></g></g><g clip-path="url(#b)"><defs><rect id="bn" x="291" y="5" width="414" height="140"/></defs><clipPath><use xlink:href="#bn" overflow="visible"/></clipPath></g><g clip-path="url(#b)"><defs><path id="bm" d="M690.597,142.649c-3.219,1.509-6.811,2.351-10.601,2.351H316.004         C302.194,145,291,133.803,291,119.991V30.009C291,16.191,302.195,5,316.004,5h363.992C693.806,5,705,16.197,705,30.009v64.99         c-0.112,0.067-0.224,0.137-0.333,0.211c-9.75,6.564,0,11.015-21.667,29.536C683,132.162,686.046,138.225,690.597,142.649         L690.597,142.649z"/></defs><clipPath id="bl"><use xlink:href="#bm" overflow="visible"/></clipPath><g clip-path="url(#bl)"><defs><rect id="bk" x="279" y="-9" width="462" height="166"/></defs><clipPath id="bj"><use xlink:href="#bk" overflow="visible"/></clipPath><path clip-path="url(#bj)" fill-rule="evenodd" clip-rule="evenodd" fill="#000000" d="M-177.403,142.649         c-3.219,1.509-6.811,2.351-10.601,2.351h-363.992c-13.81,0-25.004-11.197-25.004-25.009V30.009         C-577,16.191-565.805,5-551.996,5h363.992C-174.194,5-163,16.197-163,30.009v64.99c-0.112,0.067-0.224,0.137-0.333,0.211         c-9.75,6.564,0,11.015-21.667,29.536C-185,132.162-181.954,138.225-177.403,142.649L-177.403,142.649z M-586-4h434v164h-434         V-4z"/></g></g><g clip-path="url(#b)"><defs><path id="bi" d="M690.597,142.649c-3.219,1.509-6.811,2.351-10.601,2.351H316.004         C302.194,145,291,133.803,291,119.991V30.009C291,16.191,302.195,5,316.004,5h363.992C693.806,5,705,16.197,705,30.009v64.99         c-0.112,0.067-0.224,0.137-0.333,0.211c-9.75,6.564,0,11.015-21.667,29.536C683,132.162,686.046,138.225,690.597,142.649         L690.597,142.649z"/></defs><clipPath id="bh"><use xlink:href="#bi" overflow="visible"/></clipPath><g clip-path="url(#bh)"><defs><rect id="bg" x="279" y="-9" width="462" height="166"/></defs><clipPath id="bf"><use xlink:href="#bg" overflow="visible"/></clipPath><g clip-path="url(#bf)" enable-background="new    "><g><defs><rect id="be" x="291" y="5" width="414" height="140"/></defs><clipPath id="c"><use xlink:href="#be" overflow="visible"/></clipPath><g clip-path="url(#c)"><defs><rect id="bd" x="291" y="5" width="414" height="140"/></defs><clipPath id="f"><use xlink:href="#bd" overflow="visible"/></clipPath><g opacity="0" clip-path="url(#f)"><g opacity="0"><g><defs><rect id="bc" x="291" y="5" width="414" height="140"/></defs><clipPath><use xlink:href="#bc" overflow="visible"/></clipPath></g></g></g><g clip-path="url(#f)"><g><defs><rect id="bb" x="291" y="5" width="414" height="140"/></defs><clipPath><use xlink:href="#bb" overflow="visible"/></clipPath></g></g></g><g clip-path="url(#c)"><defs><rect id="ba" x="291" y="5" width="414" height="140"/></defs><clipPath><use xlink:href="#ba" overflow="visible"/></clipPath></g><g clip-path="url(#c)"><defs><path id="az" d="M690.597,142.649c-3.219,1.509-6.811,2.351-10.601,2.351H316.004             C302.194,145,291,133.803,291,119.991V30.009C291,16.191,302.195,5,316.004,5h363.992C693.806,5,705,16.197,705,30.009             v64.99c-0.112,0.067-0.224,0.137-0.333,0.211c-9.75,6.564,0,11.015-21.667,29.536             C683,132.162,686.046,138.225,690.597,142.649L690.597,142.649z"/></defs><clipPath id="ay"><use xlink:href="#az" overflow="visible"/></clipPath><g clip-path="url(#ay)"><defs><rect id="ax" x="291" y="5" width="414" height="140"/></defs><clipPath id="aw"><use xlink:href="#ax" overflow="visible"/></clipPath><path clip-path="url(#aw)" fill-rule="evenodd" clip-rule="evenodd" fill="#000000" d="M-177.403,142.649             c-3.219,1.509-6.811,2.351-10.601,2.351h-363.992c-13.81,0-25.004-11.197-25.004-25.009V30.009             C-577,16.191-565.805,5-551.996,5h363.992C-174.194,5-163,16.197-163,30.009v64.99c-0.112,0.067-0.224,0.137-0.333,0.211             c-9.75,6.564,0,11.015-21.667,29.536C-185,132.162-181.954,138.225-177.403,142.649L-177.403,142.649z M-586-4h434v164             h-434V-4z"/></g></g><g clip-path="url(#c)"><defs><rect id="av" x="291" y="5" width="414" height="140"/></defs><clipPath id="au"><use xlink:href="#av" overflow="visible"/></clipPath><g clip-path="url(#au)"><defs><rect id="at" x="665" y="87" width="58" height="66"/></defs><clipPath><use xlink:href="#at" overflow="visible"/></clipPath></g></g><g clip-path="url(#c)"><defs><path id="as" d="M330.996,5C324.371,5,319,10.37,319,16.998v43.005C319,66.629,324.371,72,330.996,72h335.008             C672.629,72,678,66.63,678,60.002V16.998C678,10.372,672.629,5,666.004,5H330.996z"/></defs><clipPath id="ar"><use xlink:href="#as" overflow="visible"/></clipPath><g clip-path="url(#ar)"><defs><rect id="aq" x="319" y="5" width="359" height="67"/></defs><clipPath id="ap"><use xlink:href="#aq" overflow="visible"/></clipPath><g opacity="0" clip-path="url(#ap)"><g opacity="0"><g><defs><rect id="ao" x="319" y="5" width="359" height="67"/></defs><clipPath><use xlink:href="#ao" overflow="visible"/></clipPath></g></g></g></g></g><g clip-path="url(#c)"><defs><path id="an" d="M330.996,5C324.371,5,319,10.37,319,16.998v43.005C319,66.629,324.371,72,330.996,72h335.008             C672.629,72,678,66.63,678,60.002V16.998C678,10.372,672.629,5,666.004,5H330.996z"/></defs><clipPath id="am"><use xlink:href="#an" overflow="visible"/></clipPath><g clip-path="url(#am)"><defs><rect id="al" x="291" y="5" width="414" height="140"/></defs><clipPath id="ak"><use xlink:href="#al" overflow="visible"/></clipPath><g clip-path="url(#ak)"><g><defs><rect id="aj" x="291" y="5" width="414" height="140"/></defs><clipPath><use xlink:href="#aj" overflow="visible"/></clipPath></g></g></g></g><g clip-path="url(#c)"><defs><rect id="ai" x="319" y="5" width="359" height="67"/></defs><clipPath><use xlink:href="#ai" overflow="visible"/></clipPath></g><g clip-path="url(#c)"><defs><path id="ah" d="M330.996,5C324.371,5,319,10.37,319,16.998v43.005C319,66.629,324.371,72,330.996,72h335.008             C672.629,72,678,66.63,678,60.002V16.998C678,10.372,672.629,5,666.004,5H330.996z"/></defs><clipPath id="ag"><use xlink:href="#ah" overflow="visible"/></clipPath><g clip-path="url(#ag)"><defs><rect id="af" x="291" y="5" width="414" height="140"/></defs><clipPath id="ae"><use xlink:href="#af" overflow="visible"/></clipPath><path clip-path="url(#ae)" fill-rule="evenodd" clip-rule="evenodd" fill="#000000" d="M-435.004,5             C-441.629,5-447,10.37-447,16.998v43.005C-447,66.629-441.629,72-435.004,72h335.008C-93.371,72-88,66.63-88,60.002             V16.998C-88,10.372-93.371,5-99.996,5H-435.004z M-457-5h383v93h-383V-5z"/></g></g></g></g></g></g></g></g></g><g clip-path="url(#d)"><defs><rect id="ad" x="291" y="5" width="438" height="140"/></defs><clipPath><use xlink:href="#ad" overflow="visible"/></clipPath></g><g clip-path="url(#d)"><defs><path id="ac" d="M699.694,135.4c-4.577,5.845-11.698,9.6-19.697,9.6H316.004C302.194,145,291,133.803,291,119.991      V30.009C291,16.191,302.195,5,316.004,5h363.992C693.806,5,705,16.197,705,30.009v46.056c0.209,2.087,0.276,4.475,0.182,7.188      c0,22.534,4.331,42.663,23.818,56.747C714.855,140,705.64,137.874,699.694,135.4z"/></defs><clipPath id="ab"><use xlink:href="#ac" overflow="visible"/></clipPath><g clip-path="url(#ab)"><defs><rect id="aa" x="283" y="-4" width="454" height="156"/></defs><clipPath id="z"><use xlink:href="#aa" overflow="visible"/></clipPath><path clip-path="url(#z)" fill-rule="evenodd" clip-rule="evenodd" fill="#000000" d="M-224.306,135.4      c-4.577,5.845-11.698,9.6-19.697,9.6h-363.992c-13.81,0-25.004-11.197-25.004-25.009V30.009C-633,16.191-621.805,5-607.996,5      h363.992C-230.194,5-219,16.197-219,30.009v46.056c0.21,2.087,0.276,4.475,0.182,7.188c0,22.534,4.331,42.663,23.818,56.747      C-209.145,140-218.36,137.874-224.306,135.4z M-643-5h462v162h-462V-5z"/></g></g><g clip-path="url(#d)"><defs><path id="y" d="M699.694,135.4c-4.577,5.845-11.698,9.6-19.697,9.6H316.004C302.194,145,291,133.803,291,119.991      V30.009C291,16.191,302.195,5,316.004,5h363.992C693.806,5,705,16.197,705,30.009v46.056c0.209,2.087,0.276,4.475,0.182,7.188      c0,22.534,4.331,42.663,23.818,56.747C714.855,140,705.64,137.874,699.694,135.4z"/></defs><clipPath id="x"><use xlink:href="#y" overflow="visible"/></clipPath><g clip-path="url(#x)"><defs><rect id="w" x="283" y="-4" width="454" height="156"/></defs><clipPath id="v"><use xlink:href="#w" overflow="visible"/></clipPath><g clip-path="url(#v)" enable-background="new    "><g><defs><rect id="u" x="291" y="5" width="438" height="140"/></defs><clipPath id="e"><use xlink:href="#u" overflow="visible"/></clipPath><g clip-path="url(#e)"><defs><rect id="t" x="291" y="5" width="438" height="140"/></defs><clipPath><use xlink:href="#t" overflow="visible"/></clipPath></g><g clip-path="url(#e)"><defs><path id="s" d="M699.694,135.4c-4.577,5.845-11.698,9.6-19.697,9.6H316.004C302.194,145,291,133.803,291,119.991          V30.009C291,16.191,302.195,5,316.004,5h363.992C693.806,5,705,16.197,705,30.009v46.056          c0.209,2.087,0.276,4.475,0.182,7.188c0,22.534,4.331,42.663,23.818,56.747C714.855,140,705.64,137.874,699.694,135.4z"/></defs><clipPath id="r"><use xlink:href="#s" overflow="visible"/></clipPath><g clip-path="url(#r)"><defs><rect id="q" x="291" y="5" width="438" height="140"/></defs><clipPath id="p"><use xlink:href="#q" overflow="visible"/></clipPath><path clip-path="url(#p)" fill-rule="evenodd" clip-rule="evenodd" fill="#000000" d="M-224.306,135.4          c-4.577,5.845-11.698,9.6-19.697,9.6h-363.992c-13.81,0-25.004-11.197-25.004-25.009V30.009          C-633,16.191-621.805,5-607.996,5h363.992C-230.194,5-219,16.197-219,30.009v46.056c0.21,2.087,0.276,4.475,0.182,7.188          c0,22.534,4.331,42.663,23.818,56.747C-209.145,140-218.36,137.874-224.306,135.4z M-643-5h462v162h-462V-5z"/></g></g></g></g></g></g></g></g><g><defs><rect id="o" x="330" y="26" width="139" height="28"/></defs><clipPath><use xlink:href="#o" overflow="visible"/></clipPath></g><g><defs><rect id="n" x="322" y="13" width="343" height="49"/></defs><clipPath id="m"><use xlink:href="#n" overflow="visible"/></clipPath><g clip-path="url(#m)"><defs><rect id="l" x="308" y="-60.754" width="371" height="114.754"/></defs><clipPath id="k"><use xlink:href="#l" overflow="visible"/></clipPath><g clip-path="url(#k)"><text transform="matrix(1 0 0 1 -358 47)" font-family="'HelveticaNeue'" font-size="29.7544">Hi yourself</text></g></g></g><g><defs><rect id="j" x="308" y="-60.754" width="371" height="114.754"/></defs><clipPath id="i"><use xlink:href="#j" overflow="visible"/></clipPath><g clip-path="url(#i)"><text transform="matrix(1 0 0 1 328 47)" font-family="'HelveticaNeue'" font-size="29.7544">Hi yourself</text></g></g><g><path d="M95.525,78.503l-5.831-5.83c-0.477-0.477-1.249-0.477-1.726,0c-0.477,0.477-0.477,1.249,0,1.726l4.968,4.968l-4.968,4.968   c-0.477,0.477-0.477,1.249,0,1.726c0.238,0.238,0.551,0.357,0.863,0.357c0.312,0,0.624-0.119,0.863-0.357l5.831-5.83   C96.001,79.752,96.001,78.98,95.525,78.503z"/><path d="M43.999,80h44.324c0.674,0,1.22-0.326,1.22-1s-0.547-1-1.22-1H54.621c11.612-4.419,19.887-15.661,19.887-28.804   c0-16.99-13.822-30.812-30.812-30.812c-0.189,0-0.363,0.051-0.523,0.128c-0.152-0.073-0.318-0.119-0.497-0.123l3.753-3.753   c0.477-0.476,0.477-1.249,0-1.726c-0.477-0.477-1.249-0.477-1.726,0l-5.696,5.696c-15.278,1.809-27.169,14.832-27.169,30.589   c0,13.144,8.275,24.385,19.887,28.804H6.971c-0.674,0-1.22,0.326-1.22,1s0.546,1,1.22,1h33.354h2.022   c0.101,0.001,0.201,0.008,0.303,0.008c0.013,0,0.025-0.007,0.038-0.008h0.078h0.891c0.013,0,0.025,0.008,0.038,0.008   C43.797,80.008,43.897,80.001,43.999,80z M14.279,49.196c0-14.551,11.013-26.572,25.14-28.182l5.284,5.284   c0.238,0.238,0.551,0.358,0.863,0.358c0.312,0,0.624-0.119,0.863-0.358c0.477-0.476,0.477-1.249,0-1.726l-3.753-3.753   c0.179-0.004,0.345-0.05,0.497-0.123c0.16,0.077,0.333,0.128,0.523,0.128c15.644,0,28.371,12.727,28.371,28.371   c0,15.644-12.727,28.371-28.371,28.371c-0.189,0-0.363,0.051-0.523,0.128c-0.16-0.077-0.333-0.128-0.523-0.128   C27.006,77.567,14.279,64.84,14.279,49.196z"/></g><text x="0" y="115" fill="#000000" font-size="5px" font-weight="bold" font-family="'Helvetica Neue', Helvetica, Arial-Unicode, Arial, Sans-serif">Created by Chris Jones</text><text x="0" y="120" fill="#000000" font-size="5px" font-weight="bold" font-family="'Helvetica Neue', Helvetica, Arial-Unicode, Arial, Sans-serif">from the Noun Project</text></svg>