<svg xmlns="http://www.w3.org/2000/svg" xmlns:xlink="http://www.w3.org/1999/xlink" version="1.1" x="0px" y="0px" viewBox="0 0 100 125" style="enable-background:new 0 0 100 100;" xml:space="preserve"><path d="M55,50c0,2.8-2.2,5-5,5s-5-2.2-5-5s2.2-5,5-5S55,47.2,55,50z M50,63c-2.8,0-5,2.2-5,5s2.2,5,5,5s5-2.2,5-5S52.8,63,50,63z   M50,37c2.8,0,5-2.2,5-5s-2.2-5-5-5s-5,2.2-5,5S47.2,37,50,37z"/><text x="0" y="115" fill="#000000" font-size="5px" font-weight="bold" font-family="'Helvetica Neue', Helvetica, Arial-Unicode, Arial, Sans-serif">Created by Setyo Ari Wibowo</text><text x="0" y="120" fill="#000000" font-size="5px" font-weight="bold" font-family="'Helvetica Neue', Helvetica, Arial-Unicode, Arial, Sans-serif">from the Noun Project</text></svg>