<svg xmlns="http://www.w3.org/2000/svg" xmlns:xlink="http://www.w3.org/1999/xlink" version="1.1" x="0px" y="0px" viewBox="0 0 100 125" enable-background="new 0 0 100 100" xml:space="preserve"><g><path d="M29.816,30.577v33.85h57.036v-33.85H29.816z M83.564,32.064L60.663,46.704c-2.256,1.645-4.271,0.088-4.354,0.023   L33.128,32.064H83.564z M31.304,32.671L53.493,46.7L31.304,62.253V32.671z M32.918,62.938l21.937-15.377l0.555,0.35   c0.612,0.482,1.755,1.034,3.099,1.034c0.937,0,1.972-0.268,2.994-1.013l0.774-0.495l22.115,15.501H32.918z M85.365,61.803   L63.633,46.57l21.732-13.891V61.803z"/><path d="M13.092,34.501h13.184c0.489,0,0.885-0.396,0.885-0.884c0-0.489-0.396-0.885-0.885-0.885H13.092   c-0.488,0-0.884,0.396-0.884,0.885C12.208,34.105,12.604,34.501,13.092,34.501z"/><path d="M26.639,37.745H8.617c-0.488,0-0.884,0.396-0.884,0.884s0.396,0.885,0.884,0.885h18.021c0.489,0,0.885-0.396,0.885-0.885   S27.127,37.745,26.639,37.745z"/><path d="M26.548,42.941H15.783c-0.489,0-0.885,0.396-0.885,0.884c0,0.489,0.396,0.885,0.885,0.885h10.765   c0.488,0,0.884-0.396,0.884-0.885C27.433,43.337,27.037,42.941,26.548,42.941z"/></g><text x="0" y="115" fill="#000000" font-size="5px" font-weight="bold" font-family="'Helvetica Neue', Helvetica, Arial-Unicode, Arial, Sans-serif">Created by Joris Millot</text><text x="0" y="120" fill="#000000" font-size="5px" font-weight="bold" font-family="'Helvetica Neue', Helvetica, Arial-Unicode, Arial, Sans-serif">from the Noun Project</text></svg>