<svg xmlns="http://www.w3.org/2000/svg" xmlns:xlink="http://www.w3.org/1999/xlink" version="1.1" x="0px" y="0px" viewBox="0 0 100 125" enable-background="new 0 0 100 100" xml:space="preserve"><path d="M48.412,25.44h-9.822v-2.924h9.822V25.44z M80.163,28.117H38.591v2.924h41.573V28.117z M80.163,33.714H38.591v2.924h41.573  V33.714z M80.163,39.315H38.591v2.924h41.573V39.315z M99.211,48.737l-0.016,0.219l-5.979,39.463  c-0.066,2.072-1.77,3.737-3.857,3.737H9.446c-2.09,0-3.798-1.67-3.859-3.745L0.789,54.333c0-2.128,1.731-3.859,3.86-3.859h0.936  V31.156c0-2.128,1.732-3.859,3.861-3.859h21.243V7.844h42.316l15.287,15.289v4.164h1.066c2.127,0,3.859,1.731,3.859,3.859v13.723  h2.136C97.48,44.879,99.211,46.609,99.211,48.737z M88.292,30.221v14.658h2.001V31.156c0-0.515-0.42-0.935-0.935-0.935H88.292z   M73.862,12.836v9.44h9.439L73.862,12.836z M33.613,10.768v39.706H50.56l1.625-2.636H38.591v-2.924h15.398l0.022-0.035h31.358  V25.201H72.4l-1.462-1.462v-12.97H33.613z M30.689,36.808H14.538v13.666h16.151V36.808z M8.509,50.474h3.105v-16.59h19.075v-3.663  H9.446c-0.517,0-0.937,0.419-0.937,0.935V50.474z M96.283,48.652c-0.043-0.476-0.444-0.849-0.929-0.849H55.642l-3.451,5.595H4.649  c-0.489,0-0.892,0.377-0.933,0.856l4.793,34.042c0,0.516,0.42,0.936,0.937,0.936h79.913c0.515,0,0.935-0.42,0.935-0.936l0.016-0.219  L96.283,48.652z"/><text x="0" y="115" fill="#000000" font-size="5px" font-weight="bold" font-family="'Helvetica Neue', Helvetica, Arial-Unicode, Arial, Sans-serif">Created by Lewis Ngugi</text><text x="0" y="120" fill="#000000" font-size="5px" font-weight="bold" font-family="'Helvetica Neue', Helvetica, Arial-Unicode, Arial, Sans-serif">from the Noun Project</text></svg>