<svg xmlns:dc="http://purl.org/dc/elements/1.1/" xmlns:cc="http://creativecommons.org/ns#" xmlns:rdf="http://www.w3.org/1999/02/22-rdf-syntax-ns#" xmlns:svg="http://www.w3.org/2000/svg" xmlns="http://www.w3.org/2000/svg" xmlns:sodipodi="http://sodipodi.sourceforge.net/DTD/sodipodi-0.dtd" xmlns:inkscape="http://www.inkscape.org/namespaces/inkscape" version="1.1" x="0px" y="0px" viewBox="0 0 100 125"><g transform="translate(0,-952.36218)"><path style="font-size:medium;font-style:normal;font-variant:normal;font-weight:normal;font-stretch:normal;text-indent:0;text-align:start;text-decoration:none;line-height:normal;letter-spacing:normal;word-spacing:normal;text-transform:none;direction:ltr;block-progression:tb;writing-mode:lr-tb;text-anchor:start;baseline-shift:baseline;opacity:1;color:#000000;fill:#000000;fill-opacity:1;stroke:none;stroke-width:2;marker:none;visibility:visible;display:inline;overflow:visible;enable-background:accumulate;font-family:Sans;-inkscape-font-specification:Sans" d="M 17 12 C 14.247299 12 12 14.2473 12 17 L 12 83 C 12 85.7527 14.247299 88 17 88 L 83 88 C 85.752701 88 88 85.7527 88 83 L 88 17 C 88 14.2473 85.752701 12 83 12 L 17 12 z M 17 14 L 83 14 C 84.679296 14 86 15.3207 86 17 L 86 83 C 86 84.6793 84.679296 86 83 86 L 17 86 C 15.320704 86 14 84.6793 14 83 L 14 17 C 14 15.3207 15.320704 14 17 14 z M 50 25 C 47.802683 25 46 26.80274 46 29 C 46 31.19732 47.802724 33 50 33 C 52.197276 33 54 31.19732 54 29 C 54 26.80274 52.197317 25 50 25 z M 50 27 C 51.116393 27 52 27.88366 52 29 C 52 30.11648 51.116434 31 50 31 C 48.883566 31 48 30.11648 48 29 C 48 27.88366 48.883607 27 50 27 z M 49.875 36.96875 A 1.0001 1.0001 0 0 0 49 38 L 49 72 A 1.0001 1.0001 0 1 0 51 72 L 51 38 A 1.0001 1.0001 0 0 0 49.875 36.96875 z " transform="translate(0,952.36218)"/></g><text x="0" y="115" fill="#000000" font-size="5px" font-weight="bold" font-family="'Helvetica Neue', Helvetica, Arial-Unicode, Arial, Sans-serif">Created by Icons fest</text><text x="0" y="120" fill="#000000" font-size="5px" font-weight="bold" font-family="'Helvetica Neue', Helvetica, Arial-Unicode, Arial, Sans-serif">from the Noun Project</text></svg>