<svg xmlns="http://www.w3.org/2000/svg" data-name="Layer 1" viewBox="0 0 100 125" x="0px" y="0px"><title>Artboard 21</title><path d="M99.13,77.61v8.24H64.67V73c0-.08,0-.15,0-.23A12,12,0,0,0,58.13,63c.81-.42,1.41-.73,1.75-.89a.53.53,0,0,0,.3-.48V56.09a13.35,13.35,0,0,1-1.66-4.55c-.64-.05-1.47-.94-2.38-4.13-1.16-4.1-.07-4.91,1-4.91-.56-2.4-2-10.72,4.22-14.5a3.33,3.33,0,0,1-1.18-2.53s7.06.8,10.49.09,7.1,2,7.68,4.56c0,0,6.93,0,4.24,12.38,1.08,0,2.26.7,1.07,4.91-.9,3.19-1.74,4.08-2.38,4.13a13.35,13.35,0,0,1-1.66,4.55v5.55a.53.53,0,0,0,.3.48A94.73,94.73,0,0,1,97,73.13,5.8,5.8,0,0,1,99.13,77.61ZM60.17,73a7.49,7.49,0,0,0-4.25-6,34.68,34.68,0,0,0-6.23-2.35c-.09,0-3.42-.93-6.48-2a.31.31,0,0,0-.39.4l2.58,6.49A.38.38,0,0,1,45,70l-4.68-.5-8.64,11.9a.18.18,0,0,1-.31-.16L38.47,59v-3h0v-1s9.1.28,13.42-4.13c0,0-6.28-1.78-5.15-13.22s-1.41-21.49-10.6-20.64c0,0-4-4.8-11.92-1.78-2.72,1-10,3.66-9.66,19.51S8.91,50.6,8.91,50.6,12,55.1,22.52,55v3.82L29.66,81.2a.18.18,0,0,1-.31.16l-8.64-11.9L16,70a.38.38,0,0,1-.4-.52l2.59-6.53a.31.31,0,0,0-.39-.4c-3.06,1.11-6.41,2-6.5,2A34.69,34.69,0,0,0,5.12,66.9a7.5,7.5,0,0,0-4.25,6V85.85h59.3Z"/><text x="0" y="115" fill="#000000" font-size="5px" font-weight="bold" font-family="'Helvetica Neue', Helvetica, Arial-Unicode, Arial, Sans-serif">Created by Gregor Cresnar</text><text x="0" y="120" fill="#000000" font-size="5px" font-weight="bold" font-family="'Helvetica Neue', Helvetica, Arial-Unicode, Arial, Sans-serif">from the Noun Project</text></svg>