<svg xmlns="http://www.w3.org/2000/svg" xmlns:xlink="http://www.w3.org/1999/xlink" viewBox="0 0 100 125" version="1.1" x="0px" y="0px"><title>Download s16.2</title><desc>Created with Sketch.</desc><g stroke="none" stroke-width="1" fill="none" fill-rule="evenodd"><g><path d="M49.6832666,29.2922411 C49.2959489,28.9025199 48.6687424,28.9026527 48.2826557,29.2922411 L36.3107233,41.3727539 C35.3687237,42.3156917 36.7812237,43.7295985 37.7232233,42.7866606 L47.2946234,33.202018 C47.684778,32.8113236 48.0010608,32.9477504 48.0010608,33.4861738 L48.0010608,57.61068 C48.0010608,58.1583093 48.4444548,58.6022506 49,58.6022506 L49,58.6022506 C49.5516989,58.6022506 49.9989392,58.1491035 49.9989392,57.61068 L49.9989392,33.4861738 C49.9989392,32.9385445 50.3178047,32.81391 50.7053766,33.202018 L60.2767767,42.7866606 C61.2187763,43.7295985 62.6312763,42.3156917 61.6892767,41.3727539 L49.6832666,29.2922411 Z" fill="#000000" transform="translate(49.000000, 43.801125) rotate(-180.000000) translate(-49.000000, -43.801125) "/><path d="M32.0054204,70.000095 C31.4549884,70.0000426 31.00834,69.5536886 31.0078025,69.0024554 L31,61 C31,60.4477153 30.5522847,60 30,60 C29.4477153,60 29,60.4477153 29,61 L29,70.0046024 C29,71.1015214 29.9042724,72 31.0087752,72 L68.9912248,72 C70.099629,72 71,71.1100912 71,70.0046024 L71,61 C71,60.4477153 70.5522847,60 70,60 C69.4477153,60 69,60.4477153 69,61 L69,69.0056769 C69,69.5568274 68.5468744,70.0035799 68.0033548,70.0035281 L32.0054204,70.000095 Z" fill="#000000"/></g></g><text x="0" y="115" fill="#000000" font-size="5px" font-weight="bold" font-family="'Helvetica Neue', Helvetica, Arial-Unicode, Arial, Sans-serif">Created by Landan Lloyd</text><text x="0" y="120" fill="#000000" font-size="5px" font-weight="bold" font-family="'Helvetica Neue', Helvetica, Arial-Unicode, Arial, Sans-serif">from the Noun Project</text></svg>