<svg xmlns:dc="http://purl.org/dc/elements/1.1/" xmlns:cc="http://creativecommons.org/ns#" xmlns:rdf="http://www.w3.org/1999/02/22-rdf-syntax-ns#" xmlns:svg="http://www.w3.org/2000/svg" xmlns="http://www.w3.org/2000/svg" xmlns:sodipodi="http://sodipodi.sourceforge.net/DTD/sodipodi-0.dtd" xmlns:inkscape="http://www.inkscape.org/namespaces/inkscape" version="1.1" x="0px" y="0px" viewBox="0 0 100 125"><g transform="translate(0,-952.36218)"><path d="m 17.02796,999.1121 -10.001,44 c -0.15193,0.5887 0.36082,1.2502 0.96885,1.25 l 84.00837,0 c 0.60803,2e-4 1.12078,-0.6613 0.96885,-1.25 l -10.001,-44 c -0.10993,-0.42557 -0.52927,-0.75019 -0.96884,-0.75 l -14.0014,0 c -0.52836,-0.007 -1.01434,0.47163 -1.01434,1 0,0.52837 0.48598,1.0075 1.01434,1 l 13.22007,0 9.5322,42 -81.50813,0 9.5322,-42 13.22007,0 c 0.52836,0.01 1.01434,-0.47163 1.01434,-1 0,-0.52837 -0.48598,-1.00747 -1.01434,-1 l -14.00139,0 c -0.5348,0.005 -0.8682,0.38514 -0.96885,0.75 z" style="text-indent:0;text-transform:none;direction:ltr;block-progression:tb;baseline-shift:baseline;color:#000000;enable-background:accumulate;" fill="#000000" fill-opacity="1" stroke="none" marker="none" visibility="visible" display="inline" overflow="visible"/><path style="text-indent:0;text-transform:none;direction:ltr;block-progression:tb;baseline-shift:baseline;color:#000000;enable-background:accumulate;" d="m 49.31029,1032.1128 -17,-16.0001 c -0.4042,-0.3873 -0.4071,-1.0492 -0.047,-1.4221 0.3659,-0.379 1.0376,-0.4068 1.4221,-0.047 l 15.3125,14.4064 0,-67.68779 c 0,-0.5523 0.4477,-1 1,-1 0.5523,0 1,0.4477 1,1 l 0,67.68779 15.3125,-14.4064 c 0.3845,-0.3601 1.0621,-0.3379 1.4221,0.047 0.36,0.3846 0.3689,1.0035 -0.047,1.4221 l -17,16.0001 c -0.468,0.3804 -1.0416,0.2804 -1.3752,0 z" fill="#000000" fill-opacity="1" stroke="none" marker="none" visibility="visible" display="inline" overflow="visible"/></g><text x="0" y="115" fill="#000000" font-size="5px" font-weight="bold" font-family="'Helvetica Neue', Helvetica, Arial-Unicode, Arial, Sans-serif">Created by Eagle Eye</text><text x="0" y="120" fill="#000000" font-size="5px" font-weight="bold" font-family="'Helvetica Neue', Helvetica, Arial-Unicode, Arial, Sans-serif">from the Noun Project</text></svg>